# Blender v3.1.0 OBJ File: 'Levels.blend'
# www.blender.org
mtllib Goal.mtl
o Goal_Cube.015
v 43.359322 -7.500000 -8.199999
v 43.359322 -7.500000 -6.799999
v 43.359322 7.500000 -8.200002
v 43.359322 7.500000 -6.800001
v 28.359322 -7.500000 -8.199999
v 28.359322 -7.500000 -6.799999
v 28.359322 7.500000 -8.200002
v 28.359322 7.500000 -6.800001
vt 1.997417 -0.002677
vt 2.997417 -0.002677
vt 2.997417 0.997323
vt 1.997417 0.997323
vt 0.997417 0.997323
vt 1.997417 1.997323
vt 0.997417 1.997323
vt 0.997417 -2.002677
vt 1.997417 -2.002677
vt 1.997417 -1.002677
vt 0.997417 -1.002677
vt -0.002583 -0.002677
vt 0.997417 -0.002677
vt -0.002583 0.997323
vn 0.0000 -0.0000 -1.0000
vn 0.0000 1.0000 0.0000
vn -1.0000 0.0000 0.0000
vn 0.0000 0.0000 1.0000
vn 1.0000 0.0000 0.0000
vn 0.0000 -1.0000 0.0000
usemtl Material.014
s off
f 1/1/1 5/2/1 7/3/1 3/4/1
f 4/5/2 3/4/2 7/6/2 8/7/2
f 8/8/3 7/9/3 5/10/3 6/11/3
f 6/12/4 2/13/4 4/5/4 8/14/4
f 2/13/5 1/1/5 3/4/5 4/5/5
f 6/11/6 5/10/6 1/1/6 2/13/6
