# Blender v3.1.0 OBJ File: 'Levels.blend'
# www.blender.org
mtllib Goal_002.mtl
o Goal.002_Cube.006
v 47.574631 0.532306 1.750323
v 47.574631 0.532306 3.150323
v 47.574631 15.532306 1.750321
v 47.574631 15.532306 3.150321
v 32.574631 0.532306 1.750323
v 32.574631 0.532306 3.150323
v 32.574631 15.532306 1.750321
v 32.574631 15.532306 3.150321
vt 1.997417 -0.002677
vt 2.997417 -0.002677
vt 2.997417 0.997323
vt 1.997417 0.997323
vt 0.997417 0.997323
vt 1.997417 1.997323
vt 0.997417 1.997323
vt 0.997417 -2.002677
vt 1.997417 -2.002677
vt 1.997417 -1.002677
vt 0.997417 -1.002677
vt -0.002583 -0.002677
vt 0.997417 -0.002677
vt -0.002583 0.997323
vn 0.0000 -0.0000 -1.0000
vn 0.0000 1.0000 0.0000
vn -1.0000 0.0000 0.0000
vn 0.0000 0.0000 1.0000
vn 1.0000 0.0000 0.0000
vn 0.0000 -1.0000 0.0000
usemtl Material.017
s off
f 1/1/1 5/2/1 7/3/1 3/4/1
f 4/5/2 3/4/2 7/6/2 8/7/2
f 8/8/3 7/9/3 5/10/3 6/11/3
f 6/12/4 2/13/4 4/5/4 8/14/4
f 2/13/5 1/1/5 3/4/5 4/5/5
f 6/11/6 5/10/6 1/1/6 2/13/6
