# Blender v3.1.0 OBJ File: 'Levels.blend'
# www.blender.org
mtllib Support1_002.mtl
o Support1.002_Cylinder.007
v 34.617172 11.111426 -2.782508
v 34.535866 12.009829 17.197136
v 34.533607 11.985454 17.198223
v 34.614914 11.087051 -2.781422
v 34.526630 11.961986 17.199249
v 34.607937 11.063583 -2.780395
v 34.515205 11.940328 17.200176
v 34.596512 11.041925 -2.779467
v 34.499771 11.921312 17.200970
v 34.581078 11.022910 -2.778675
v 34.480919 11.905668 17.201597
v 34.562225 11.007266 -2.778048
v 34.459377 11.893999 17.202034
v 34.540684 10.995597 -2.777611
v 34.435970 11.886753 17.202265
v 34.517277 10.988351 -2.777381
v 34.411598 11.884207 17.202278
v 34.492905 10.985805 -2.777365
v 34.387199 11.886460 17.202080
v 34.468506 10.988058 -2.777566
v 34.363708 11.893425 17.201670
v 34.445015 10.995023 -2.777975
v 34.342030 11.904835 17.201069
v 34.423336 11.006433 -2.778576
v 34.322998 11.920251 17.200298
v 34.404305 11.021849 -2.779347
v 34.307343 11.939080 17.199387
v 34.388649 11.040678 -2.780257
v 34.295666 11.960599 17.198372
v 34.376972 11.062197 -2.781272
v 34.288418 11.983981 17.197292
v 34.369724 11.085579 -2.782353
v 34.285873 12.008328 17.196186
v 34.367180 11.109926 -2.783458
v 34.288132 12.032703 17.195099
v 34.369438 11.134301 -2.784545
v 34.295109 12.056171 17.194073
v 34.376415 11.157769 -2.785572
v 34.306534 12.077829 17.193146
v 34.387840 11.179427 -2.786499
v 34.321968 12.096845 17.192352
v 34.403275 11.198442 -2.787292
v 34.340820 12.112489 17.191727
v 34.422127 11.214087 -2.787918
v 34.362362 12.124158 17.191290
v 34.443668 11.225756 -2.788355
v 34.385769 12.131404 17.191059
v 34.467075 11.233002 -2.788586
v 34.410141 12.133950 17.191044
v 34.491447 11.235548 -2.788601
v 34.434540 12.131697 17.191244
v 34.515846 11.233294 -2.788401
v 34.458031 12.124732 17.191654
v 34.539337 11.226330 -2.787992
v 34.479710 12.113323 17.192255
v 34.561016 11.214920 -2.787391
v 34.498741 12.097906 17.193024
v 34.580048 11.199504 -2.786620
v 34.514397 12.079077 17.193935
v 34.595703 11.180675 -2.785710
v 34.526073 12.057558 17.194950
v 34.607380 11.159156 -2.784694
v 34.533325 12.034176 17.196030
v 34.614628 11.135774 -2.783613
vt 1.000000 0.500000
vt 1.000000 1.000000
vt 0.968750 1.000000
vt 0.968750 0.500000
vt 0.937500 1.000000
vt 0.937500 0.500000
vt 0.906250 1.000000
vt 0.906250 0.500000
vt 0.875000 1.000000
vt 0.875000 0.500000
vt 0.843750 1.000000
vt 0.843750 0.500000
vt 0.812500 1.000000
vt 0.812500 0.500000
vt 0.781250 1.000000
vt 0.781250 0.500000
vt 0.750000 1.000000
vt 0.750000 0.500000
vt 0.718750 1.000000
vt 0.718750 0.500000
vt 0.687500 1.000000
vt 0.687500 0.500000
vt 0.656250 1.000000
vt 0.656250 0.500000
vt 0.625000 1.000000
vt 0.625000 0.500000
vt 0.593750 1.000000
vt 0.593750 0.500000
vt 0.562500 1.000000
vt 0.562500 0.500000
vt 0.531250 1.000000
vt 0.531250 0.500000
vt 0.500000 1.000000
vt 0.500000 0.500000
vt 0.468750 1.000000
vt 0.468750 0.500000
vt 0.437500 1.000000
vt 0.437500 0.500000
vt 0.406250 1.000000
vt 0.406250 0.500000
vt 0.375000 1.000000
vt 0.375000 0.500000
vt 0.343750 1.000000
vt 0.343750 0.500000
vt 0.312500 1.000000
vt 0.312500 0.500000
vt 0.281250 1.000000
vt 0.281250 0.500000
vt 0.250000 1.000000
vt 0.250000 0.500000
vt 0.218750 1.000000
vt 0.218750 0.500000
vt 0.187500 1.000000
vt 0.187500 0.500000
vt 0.156250 1.000000
vt 0.156250 0.500000
vt 0.125000 1.000000
vt 0.125000 0.500000
vt 0.093750 1.000000
vt 0.093750 0.500000
vt 0.062500 1.000000
vt 0.062500 0.500000
vt 0.296822 0.485388
vt 0.250000 0.490000
vt 0.203178 0.485388
vt 0.158156 0.471731
vt 0.116663 0.449553
vt 0.080294 0.419706
vt 0.050447 0.383337
vt 0.028269 0.341844
vt 0.014612 0.296822
vt 0.010000 0.250000
vt 0.014612 0.203178
vt 0.028269 0.158156
vt 0.050447 0.116663
vt 0.080294 0.080294
vt 0.116663 0.050447
vt 0.158156 0.028269
vt 0.203178 0.014612
vt 0.250000 0.010000
vt 0.296822 0.014612
vt 0.341844 0.028269
vt 0.383337 0.050447
vt 0.419706 0.080294
vt 0.449553 0.116663
vt 0.471731 0.158156
vt 0.485388 0.203178
vt 0.490000 0.250000
vt 0.485388 0.296822
vt 0.471731 0.341844
vt 0.449553 0.383337
vt 0.419706 0.419706
vt 0.383337 0.449553
vt 0.341844 0.471731
vt 0.031250 1.000000
vt 0.031250 0.500000
vt 0.000000 1.000000
vt 0.000000 0.500000
vt 0.750000 0.490000
vt 0.796822 0.485388
vt 0.841844 0.471731
vt 0.883337 0.449553
vt 0.919706 0.419706
vt 0.949553 0.383337
vt 0.971731 0.341844
vt 0.985388 0.296822
vt 0.990000 0.250000
vt 0.985388 0.203178
vt 0.971731 0.158156
vt 0.949553 0.116663
vt 0.919706 0.080294
vt 0.883337 0.050447
vt 0.841844 0.028269
vt 0.796822 0.014612
vt 0.750000 0.010000
vt 0.703178 0.014612
vt 0.658156 0.028269
vt 0.616663 0.050447
vt 0.580294 0.080294
vt 0.550447 0.116663
vt 0.528269 0.158156
vt 0.514612 0.203178
vt 0.510000 0.250000
vt 0.514612 0.296822
vt 0.528269 0.341844
vt 0.550447 0.383337
vt 0.580294 0.419706
vt 0.616663 0.449553
vt 0.658156 0.471731
vt 0.703178 0.485388
vn 0.9957 -0.0919 0.0082
vn 0.9586 -0.2843 0.0167
vn 0.8846 -0.4656 0.0245
vn 0.7767 -0.6291 0.0314
vn 0.6388 -0.7684 0.0371
vn 0.4765 -0.8782 0.0414
vn 0.2958 -0.9542 0.0441
vn 0.1038 -0.9936 0.0451
vn -0.0922 -0.9947 0.0444
vn -0.2847 -0.9577 0.0419
vn -0.4662 -0.8838 0.0378
vn -0.6298 -0.7761 0.0323
vn -0.7693 -0.6384 0.0256
vn -0.8792 -0.4761 0.0178
vn -0.9552 -0.2958 0.0094
vn -0.9946 -0.1039 0.0006
vn -0.9957 0.0920 -0.0082
vn -0.9586 0.2843 -0.0167
vn -0.8847 0.4655 -0.0245
vn -0.7766 0.6292 -0.0314
vn -0.6389 0.7684 -0.0372
vn -0.4765 0.8782 -0.0414
vn -0.2958 0.9542 -0.0441
vn -0.1038 0.9936 -0.0451
vn 0.0922 0.9947 -0.0444
vn 0.2846 0.9577 -0.0419
vn 0.4663 0.8838 -0.0379
vn 0.6298 0.7760 -0.0323
vn 0.7692 0.6385 -0.0256
vn 0.8791 0.4762 -0.0178
vn -0.0041 0.0449 0.9990
vn 0.9553 0.2956 -0.0094
vn 0.9946 0.1040 -0.0006
vn 0.0041 -0.0449 -0.9990
usemtl Material.007
s 1
f 1/1/1 2/2/1 3/3/1 4/4/1
f 4/4/2 3/3/2 5/5/2 6/6/2
f 6/6/3 5/5/3 7/7/3 8/8/3
f 8/8/4 7/7/4 9/9/4 10/10/4
f 10/10/5 9/9/5 11/11/5 12/12/5
f 12/12/6 11/11/6 13/13/6 14/14/6
f 14/14/7 13/13/7 15/15/7 16/16/7
f 16/16/8 15/15/8 17/17/8 18/18/8
f 18/18/9 17/17/9 19/19/9 20/20/9
f 20/20/10 19/19/10 21/21/10 22/22/10
f 22/22/11 21/21/11 23/23/11 24/24/11
f 24/24/12 23/23/12 25/25/12 26/26/12
f 26/26/13 25/25/13 27/27/13 28/28/13
f 28/28/14 27/27/14 29/29/14 30/30/14
f 30/30/15 29/29/15 31/31/15 32/32/15
f 32/32/16 31/31/16 33/33/16 34/34/16
f 34/34/17 33/33/17 35/35/17 36/36/17
f 36/36/18 35/35/18 37/37/18 38/38/18
f 38/38/19 37/37/19 39/39/19 40/40/19
f 40/40/20 39/39/20 41/41/20 42/42/20
f 42/42/21 41/41/21 43/43/21 44/44/21
f 44/44/22 43/43/22 45/45/22 46/46/22
f 46/46/23 45/45/23 47/47/23 48/48/23
f 48/48/24 47/47/24 49/49/24 50/50/24
f 50/50/25 49/49/25 51/51/25 52/52/25
f 52/52/26 51/51/26 53/53/26 54/54/26
f 54/54/27 53/53/27 55/55/27 56/56/27
f 56/56/28 55/55/28 57/57/28 58/58/28
f 58/58/29 57/57/29 59/59/29 60/60/29
f 60/60/30 59/59/30 61/61/30 62/62/30
f 3/63/31 2/64/31 63/65/31 61/66/31 59/67/31 57/68/31 55/69/31 53/70/31 51/71/31 49/72/31 47/73/31 45/74/31 43/75/31 41/76/31 39/77/31 37/78/31 35/79/31 33/80/31 31/81/31 29/82/31 27/83/31 25/84/31 23/85/31 21/86/31 19/87/31 17/88/31 15/89/31 13/90/31 11/91/31 9/92/31 7/93/31 5/94/31
f 62/62/32 61/61/32 63/95/32 64/96/32
f 64/96/33 63/95/33 2/97/33 1/98/33
f 1/99/34 4/100/34 6/101/34 8/102/34 10/103/34 12/104/34 14/105/34 16/106/34 18/107/34 20/108/34 22/109/34 24/110/34 26/111/34 28/112/34 30/113/34 32/114/34 34/115/34 36/116/34 38/117/34 40/118/34 42/119/34 44/120/34 46/121/34 48/122/34 50/123/34 52/124/34 54/125/34 56/126/34 58/127/34 60/128/34 62/129/34 64/130/34
