# Blender v3.1.2 OBJ File: 'Levels.blend'
# www.blender.org
mtllib Support2.mtl
o Support2_Cylinder.002
v 1.670416 10.167778 12.895840
v 1.589110 11.066180 32.875484
v 1.586850 11.041805 32.876572
v 1.668156 10.143402 12.896927
v 1.579874 11.018337 32.877598
v 1.661180 10.119935 12.897953
v 1.568449 10.996679 32.878525
v 1.649755 10.098277 12.898881
v 1.553014 10.977663 32.879318
v 1.634320 10.079261 12.899673
v 1.534163 10.962019 32.879944
v 1.615469 10.063617 12.900300
v 1.512620 10.950351 32.880383
v 1.593925 10.051949 12.900737
v 1.489213 10.943104 32.880611
v 1.570519 10.044702 12.900968
v 1.464841 10.940558 32.880627
v 1.546147 10.042156 12.900983
v 1.440442 10.942811 32.880428
v 1.521748 10.044409 12.900782
v 1.416952 10.949776 32.880016
v 1.498258 10.051373 12.900373
v 1.395275 10.961185 32.879417
v 1.476580 10.062783 12.899772
v 1.376242 10.976602 32.878647
v 1.457548 10.078199 12.899001
v 1.360586 10.995431 32.877735
v 1.441892 10.097029 12.898091
v 1.348910 11.016951 32.876720
v 1.430215 10.118548 12.897076
v 1.341660 11.040333 32.875641
v 1.422966 10.141931 12.895995
v 1.339116 11.064679 32.874535
v 1.420422 10.166277 12.894890
v 1.341376 11.089054 32.873447
v 1.422682 10.190652 12.893803
v 1.348352 11.112522 32.872421
v 1.429658 10.214120 12.892776
v 1.359777 11.134180 32.871494
v 1.441083 10.235778 12.891849
v 1.375212 11.153196 32.870701
v 1.456518 10.254794 12.891056
v 1.394063 11.168840 32.870075
v 1.475369 10.270437 12.890429
v 1.415606 11.180509 32.869637
v 1.496912 10.282106 12.889993
v 1.439013 11.187756 32.869408
v 1.520319 10.289353 12.889762
v 1.463385 11.190301 32.869392
v 1.544690 10.291899 12.889747
v 1.487784 11.188048 32.869591
v 1.569090 10.289646 12.889948
v 1.511274 11.181084 32.870003
v 1.592580 10.282681 12.890356
v 1.532952 11.169674 32.870602
v 1.614257 10.271272 12.890958
v 1.551984 11.154258 32.871372
v 1.633289 10.255856 12.891728
v 1.567640 11.135428 32.872284
v 1.648946 10.237026 12.892638
v 1.579316 11.113909 32.873299
v 1.660622 10.215507 12.893654
v 1.586566 11.090527 32.874378
v 1.667872 10.192124 12.894734
vt 1.000000 0.500000
vt 1.000000 1.000000
vt 0.968750 1.000000
vt 0.968750 0.500000
vt 0.937500 1.000000
vt 0.937500 0.500000
vt 0.906250 1.000000
vt 0.906250 0.500000
vt 0.875000 1.000000
vt 0.875000 0.500000
vt 0.843750 1.000000
vt 0.843750 0.500000
vt 0.812500 1.000000
vt 0.812500 0.500000
vt 0.781250 1.000000
vt 0.781250 0.500000
vt 0.750000 1.000000
vt 0.750000 0.500000
vt 0.718750 1.000000
vt 0.718750 0.500000
vt 0.687500 1.000000
vt 0.687500 0.500000
vt 0.656250 1.000000
vt 0.656250 0.500000
vt 0.625000 1.000000
vt 0.625000 0.500000
vt 0.593750 1.000000
vt 0.593750 0.500000
vt 0.562500 1.000000
vt 0.562500 0.500000
vt 0.531250 1.000000
vt 0.531250 0.500000
vt 0.500000 1.000000
vt 0.500000 0.500000
vt 0.468750 1.000000
vt 0.468750 0.500000
vt 0.437500 1.000000
vt 0.437500 0.500000
vt 0.406250 1.000000
vt 0.406250 0.500000
vt 0.375000 1.000000
vt 0.375000 0.500000
vt 0.343750 1.000000
vt 0.343750 0.500000
vt 0.312500 1.000000
vt 0.312500 0.500000
vt 0.281250 1.000000
vt 0.281250 0.500000
vt 0.250000 1.000000
vt 0.250000 0.500000
vt 0.218750 1.000000
vt 0.218750 0.500000
vt 0.187500 1.000000
vt 0.187500 0.500000
vt 0.156250 1.000000
vt 0.156250 0.500000
vt 0.125000 1.000000
vt 0.125000 0.500000
vt 0.093750 1.000000
vt 0.093750 0.500000
vt 0.062500 1.000000
vt 0.062500 0.500000
vt 0.296822 0.485388
vt 0.250000 0.490000
vt 0.203178 0.485388
vt 0.158156 0.471731
vt 0.116663 0.449553
vt 0.080294 0.419706
vt 0.050447 0.383337
vt 0.028269 0.341844
vt 0.014612 0.296822
vt 0.010000 0.250000
vt 0.014612 0.203178
vt 0.028269 0.158156
vt 0.050447 0.116663
vt 0.080294 0.080294
vt 0.116663 0.050447
vt 0.158156 0.028269
vt 0.203178 0.014612
vt 0.250000 0.010000
vt 0.296822 0.014612
vt 0.341844 0.028269
vt 0.383337 0.050447
vt 0.419706 0.080294
vt 0.449553 0.116663
vt 0.471731 0.158156
vt 0.485388 0.203178
vt 0.490000 0.250000
vt 0.485388 0.296822
vt 0.471731 0.341844
vt 0.449553 0.383337
vt 0.419706 0.419706
vt 0.383337 0.449553
vt 0.341844 0.471731
vt 0.031250 1.000000
vt 0.031250 0.500000
vt 0.000000 1.000000
vt 0.000000 0.500000
vt 0.750000 0.490000
vt 0.796822 0.485388
vt 0.841844 0.471731
vt 0.883337 0.449553
vt 0.919706 0.419706
vt 0.949553 0.383337
vt 0.971731 0.341844
vt 0.985388 0.296822
vt 0.990000 0.250000
vt 0.985388 0.203178
vt 0.971731 0.158156
vt 0.949553 0.116663
vt 0.919706 0.080294
vt 0.883337 0.050447
vt 0.841844 0.028269
vt 0.796822 0.014612
vt 0.750000 0.010000
vt 0.703178 0.014612
vt 0.658156 0.028269
vt 0.616663 0.050447
vt 0.580294 0.080294
vt 0.550447 0.116663
vt 0.528269 0.158156
vt 0.514612 0.203178
vt 0.510000 0.250000
vt 0.514612 0.296822
vt 0.528269 0.341844
vt 0.550447 0.383337
vt 0.580294 0.419706
vt 0.616663 0.449553
vt 0.658156 0.471731
vt 0.703178 0.485388
vn 0.9957 -0.0920 0.0082
vn 0.9586 -0.2842 0.0167
vn 0.8847 -0.4656 0.0245
vn 0.7767 -0.6291 0.0314
vn 0.6389 -0.7684 0.0372
vn 0.4765 -0.8782 0.0414
vn 0.2959 -0.9542 0.0441
vn 0.1038 -0.9936 0.0451
vn -0.0922 -0.9948 0.0444
vn -0.2847 -0.9577 0.0419
vn -0.4662 -0.8838 0.0378
vn -0.6299 -0.7760 0.0323
vn -0.7693 -0.6384 0.0256
vn -0.8792 -0.4762 0.0178
vn -0.9552 -0.2957 0.0094
vn -0.9946 -0.1039 0.0006
vn -0.9957 0.0920 -0.0082
vn -0.9586 0.2842 -0.0167
vn -0.8846 0.4656 -0.0245
vn -0.7767 0.6291 -0.0314
vn -0.6389 0.7684 -0.0372
vn -0.4765 0.8782 -0.0414
vn -0.2959 0.9542 -0.0441
vn -0.1038 0.9936 -0.0451
vn 0.0922 0.9948 -0.0444
vn 0.2847 0.9577 -0.0419
vn 0.4662 0.8839 -0.0378
vn 0.6299 0.7760 -0.0323
vn 0.7693 0.6384 -0.0256
vn 0.8792 0.4762 -0.0178
vn -0.0041 0.0449 0.9990
vn 0.9552 0.2957 -0.0094
vn 0.9946 0.1039 -0.0006
vn 0.0041 -0.0449 -0.9990
usemtl Material.005
s 1
f 1/1/1 2/2/1 3/3/1 4/4/1
f 4/4/2 3/3/2 5/5/2 6/6/2
f 6/6/3 5/5/3 7/7/3 8/8/3
f 8/8/4 7/7/4 9/9/4 10/10/4
f 10/10/5 9/9/5 11/11/5 12/12/5
f 12/12/6 11/11/6 13/13/6 14/14/6
f 14/14/7 13/13/7 15/15/7 16/16/7
f 16/16/8 15/15/8 17/17/8 18/18/8
f 18/18/9 17/17/9 19/19/9 20/20/9
f 20/20/10 19/19/10 21/21/10 22/22/10
f 22/22/11 21/21/11 23/23/11 24/24/11
f 24/24/12 23/23/12 25/25/12 26/26/12
f 26/26/13 25/25/13 27/27/13 28/28/13
f 28/28/14 27/27/14 29/29/14 30/30/14
f 30/30/15 29/29/15 31/31/15 32/32/15
f 32/32/16 31/31/16 33/33/16 34/34/16
f 34/34/17 33/33/17 35/35/17 36/36/17
f 36/36/18 35/35/18 37/37/18 38/38/18
f 38/38/19 37/37/19 39/39/19 40/40/19
f 40/40/20 39/39/20 41/41/20 42/42/20
f 42/42/21 41/41/21 43/43/21 44/44/21
f 44/44/22 43/43/22 45/45/22 46/46/22
f 46/46/23 45/45/23 47/47/23 48/48/23
f 48/48/24 47/47/24 49/49/24 50/50/24
f 50/50/25 49/49/25 51/51/25 52/52/25
f 52/52/26 51/51/26 53/53/26 54/54/26
f 54/54/27 53/53/27 55/55/27 56/56/27
f 56/56/28 55/55/28 57/57/28 58/58/28
f 58/58/29 57/57/29 59/59/29 60/60/29
f 60/60/30 59/59/30 61/61/30 62/62/30
f 3/63/31 2/64/31 63/65/31 61/66/31 59/67/31 57/68/31 55/69/31 53/70/31 51/71/31 49/72/31 47/73/31 45/74/31 43/75/31 41/76/31 39/77/31 37/78/31 35/79/31 33/80/31 31/81/31 29/82/31 27/83/31 25/84/31 23/85/31 21/86/31 19/87/31 17/88/31 15/89/31 13/90/31 11/91/31 9/92/31 7/93/31 5/94/31
f 62/62/32 61/61/32 63/95/32 64/96/32
f 64/96/33 63/95/33 2/97/33 1/98/33
f 1/99/34 4/100/34 6/101/34 8/102/34 10/103/34 12/104/34 14/105/34 16/106/34 18/107/34 20/108/34 22/109/34 24/110/34 26/111/34 28/112/34 30/113/34 32/114/34 34/115/34 36/116/34 38/117/34 40/118/34 42/119/34 44/120/34 46/121/34 48/122/34 50/123/34 52/124/34 54/125/34 56/126/34 58/127/34 60/128/34 62/129/34 64/130/34
