# Blender v3.1.0 OBJ File: 'Levels.blend'
# www.blender.org
mtllib TV_002.mtl
o TV.002_Cube.009
v 38.534908 10.434311 -1.789564
v 38.534302 10.909706 -1.634644
v 33.534340 10.909706 -1.654325
v 33.534950 10.434311 -1.809246
v 33.545464 11.304976 -4.480937
v 33.544857 11.780371 -4.326016
v 38.544815 11.780371 -4.306335
v 38.545425 11.304976 -4.461256
v 33.534950 10.434311 -1.809246
v 38.534908 10.434311 -1.789564
v 38.534908 10.434311 -1.789564
v 33.534950 10.434311 -1.809246
v 38.545425 11.304976 -4.461256
v 33.545464 11.304976 -4.480937
v 33.728714 11.272998 -4.382090
v 38.361404 11.272998 -4.363854
v 38.361256 11.390465 -4.325575
v 33.728565 11.390465 -4.343810
v 38.351509 10.583755 -1.850132
v 33.718819 10.583755 -1.868367
v 38.545425 11.304976 -4.461256
v 33.545464 11.304976 -4.480937
v 38.351662 10.466289 -1.888412
v 33.718971 10.466289 -1.906647
vt 0.625000 0.500000
vt 0.875000 0.500000
vt 0.875000 0.750000
vt 0.625000 0.750000
vt 0.375000 0.750000
vt 0.625000 1.000000
vt 0.375000 1.000000
vt 0.375000 0.000000
vt 0.625000 0.000000
vt 0.625000 0.250000
vt 0.375000 0.250000
vt 0.125000 0.500000
vt 0.375000 0.500000
vt 0.125000 0.750000
vt 0.625000 0.750000
vt 0.625000 0.500000
vt 0.625000 0.500000
vt 0.625000 0.750000
vt 0.000000 0.000000
vt 0.000000 0.000000
vt 0.000000 0.000000
vt 0.000000 0.000000
vt 0.000000 0.000000
vt 0.000000 0.000000
vt 0.000000 0.000000
vt 0.000000 0.000000
vt 0.375000 0.500000
vt 0.375000 0.750000
vt 0.384182 0.740818
vt 0.384182 0.509182
vt 0.384182 0.509182
vt 0.384182 0.740818
vt 0.615818 0.509182
vt 0.615818 0.740818
vt 0.375000 0.500000
vt 0.375000 0.750000
vt 0.615818 0.509182
vt 0.615818 0.740818
vn -0.0037 -0.3098 0.9508
vn -0.0283 0.2509 -0.9676
vn 0.5816 0.0584 -0.8113
vn -1.0000 -0.0000 -0.0039
vn -0.0012 0.9508 0.3098
vn 0.0037 0.3098 -0.9508
vn -0.0733 0.0311 -0.9968
vn -0.0299 -0.0717 -0.9970
vn -0.1558 0.0000 -0.9878
vn 0.0000 0.0000 1.0000
vn 1.0000 -0.0000 0.0039
vn -0.5999 -0.2464 -0.7612
vn -0.0291 0.0720 -0.9970
vn 0.0012 -0.9508 -0.3098
vn 0.5969 -0.2536 -0.7612
vn 0.2505 0.5998 -0.7599
usemtl Material.007
s 1
f 1/1/1 2/2/1 3/3/1 4/4/1
f 5/5/2 4/4/3 3/6/4 6/7/4
f 6/8/5 3/9/5 2/10/5 7/11/5
f 7/12/6 8/13/6 5/5/6 6/14/6
f 9/15/7 10/16/8 11/17/9 12/18/10
f 7/11/11 2/10/11 1/1/11 8/13/11
f 11/19/9 13/20/10 8/21/12 1/22/13
f 14/23/10 12/24/10 4/25/3 5/26/2
f 12/18/10 11/17/9 1/1/13 4/4/3
f 13/27/10 14/28/10 5/5/2 8/13/12
f 15/29/1 16/30/1 17/31/1 18/32/1
f 17/31/14 19/33/14 20/34/14 18/32/14
f 21/35/15 22/36/16 14/28/10 13/27/10
f 22/36/16 9/15/7 12/18/10 14/28/10
f 23/37/14 16/30/14 21/35/14 10/16/14
f 9/15/14 22/36/14 15/29/14 24/38/14
f 10/16/14 9/15/14 24/38/14 23/37/14
f 22/36/14 21/35/14 16/30/14 15/29/14
f 10/16/8 21/35/15 13/27/10 11/17/9
f 23/37/6 24/38/6 20/34/6 19/33/6
f 24/38/11 15/29/11 18/32/11 20/34/11
f 16/30/4 23/37/4 19/33/4 17/31/4
