# Blender 3.1.0
# www.blender.org
mtllib Pillar.mtl
o Cube
v -5.000000 4.639952 -20.086582
v -5.000000 -5.358434 -19.906963
v -5.000000 5.358434 19.906963
v -5.000000 -4.639952 20.086582
v 5.000000 4.639952 -20.086582
v 5.000000 -5.358434 -19.906963
v 5.000000 5.358434 19.906963
v 5.000000 -4.639952 20.086582
v -5.000000 -5.358434 -19.906963
v -5.000000 -4.639952 20.086582
v 5.000000 -4.639952 20.086582
v 5.000000 -5.358434 -19.906963
vn -5.0000 -0.0000 -0.0000
vn -0.0000 0.3592 19.9968
vn 5.0000 -0.0000 -0.0000
vn -0.0000 -0.3592 -19.9968
vn -0.0000 4.9992 -0.0898
vn -0.0000 -4.9992 0.0898
vt 0.375000 0.000000
vt 0.999900 0.999900
vt 0.125000 0.750000
vt 0.875000 0.750000
vt 0.375000 0.250000
vt 0.999900 0.000100
vt 0.125000 0.500000
vt 0.875000 0.500000
vt 0.000100 0.999900
vt 0.375000 0.750000
vt 0.625000 0.750000
vt 0.000100 0.000100
vt 0.375000 0.500000
vt 0.625000 0.500000
vt 0.625000 0.000000
vt 0.999900 0.000100
vt 0.875000 0.750000
vt 0.625000 0.250000
vt 0.999900 0.999900
vt 0.875000 0.500000
vt 0.000100 0.999900
vt 0.625000 0.500000
vt 0.000100 0.000100
vt 0.625000 0.750000
s 0
usemtl Base
f 1/1/1 9/15/1 10/18/1 3/5/1
usemtl Checkerboard
f 3/6/2 10/19/2 11/21/2 7/12/2
usemtl Base
f 7/13/3 11/22/3 12/24/3 5/10/3
usemtl Checkerboard
f 5/9/4 12/23/4 9/16/4 1/2/4
usemtl Base
f 3/7/5 7/13/5 5/10/5 1/3/5
f 8/14/6 4/8/6 2/4/6 6/11/6
f 2/4/6 4/8/6 10/20/6 9/17/6
f 4/8/6 8/14/6 11/22/6 10/20/6
f 8/14/6 6/11/6 12/24/6 11/22/6
f 6/11/6 2/4/6 9/17/6 12/24/6
